# xmcd
#
# Track frame offsets:
#	150
#	9342
#	28694
#	46987
#	58701
#	76073
#	92521
#	103213
#	123538
#	138875
#	155802
#	174314
#
# Disc length: 2516 seconds
#
# Revision: 0
# Processed by: cddbd v1.5.2PL0 Copyright (c) Steve Scherf et al.
# Submitted via: EasyCDDAExtractor 8.1.2.3
#
DISCID=9109d20c
DTITLE=Angelo Kelly - Rejoce And Be Glad
DYEAR=2007
DGENRE=Blues
TTITLE0=New Start
TTITLE1=Returned
TTITLE2=Farewell
TTITLE3=Rejoce And Be Glad
TTITLE4=Broken Man
TTITLE5=Blasphemy
TTITLE6=Have Faith
TTITLE7=Since You're There
TTITLE8=No Chance
TTITLE9=Love Is All
TTITLE10=Let Me Dream
TTITLE11=A New Begining
EXTD=
EXTT0=
EXTT1=
EXTT2=
EXTT3=
EXTT4=
EXTT5=
EXTT6=
EXTT7=
EXTT8=
EXTT9=
EXTT10=
EXTT11=
PLAYORDER=
